<?xml version="1.0"?>
<svg width="600" height="300" xmlns="http://www.w3.org/2000/svg" xmlns:svg="http://www.w3.org/2000/svg" version="1.1">
 <metadata id="metadata18">image/svg+xml</metadata>
 <defs id="defs16">
  <clipPath id="clipPath20">
   <path d="m-2.71,851.32l612,0l0,-792l-612,0l0,792z" id="path22"/>
  </clipPath>
 </defs>
 <style id="style2">.st0{fill:#ff4500}</style>
 <g class="layer">
  <title>Layer 1</title>
  <g id="svg_8">
   <text fill="#FFF" font-family="Helvetica" font-size="24" font-weight="bold" id="svg_6" stroke-width="0" text-anchor="middle" transform="matrix(2.38671 0 0 2.64061 -170.436 -203.024)" x="200" xml:space="preserve" y="150">saver</text>
   <text fill="#FFF" font-family="Sans-serif" font-size="24" font-weight="bold" id="svg_7" stroke-width="0" text-anchor="middle" transform="matrix(4.73915 0 0 4.80237 -531.8 -477.508)" x="193.5" xml:space="preserve" y="130">reddit</text>
   <circle class="st0" cx="490" cy="70" id="circle4" r="12">reddit</circle>
  </g>
  <g id="svg_9">
   <circle class="st0" cx="135.8" cy="134.8" fill="black" id="circle8" r="83.8"/>
   <path d="m191.7,134.8a12.2,12.2 0 0 0 -20.7,-8.8c-8.4,-6 -19.9,-9.9 -32.7,-10.4l5.6,-26.2l18.2,3.9a8.7,8.7 0 1 0 0.9,-4.2l-20.3,-4.3c-0.6,-0.1 -1.2,0 -1.6,0.3a2,2 0 0 0 -0.9,1.4l-6.2,29.2c-13,0.4 -24.7,4.3 -33.2,10.4a12.2,12.2 0 1 0 -13.5,19.9c-0.2,1.2 -0.3,2.4 -0.3,3.7c0,18.8 21.9,34.1 48.9,34.1s48.9,-15.2 48.9,-34.1a23,23 0 0 0 -0.3,-3.7c4.2,-1.9 7.2,-6.2 7.2,-11.2zm-83.8,8.7a8.7,8.7 0 1 1 17.4,0a8.7,8.7 0 0 1 -17.4,0zm48.7,23.1c-6,6 -17.4,6.4 -20.7,6.4c-3.4,0 -14.8,-0.5 -20.7,-6.4c-0.9,-0.9 -0.9,-2.3 0,-3.2c0.9,-0.9 2.3,-0.9 3.2,0c3.8,3.8 11.8,5.1 17.5,5.1c5.7,0 13.8,-1.3 17.5,-5.1c0.9,-0.9 2.3,-0.9 3.2,0c0.8,0.9 0.8,2.3 0,3.2zm-1.6,-14.3a8.7,8.7 0 1 1 0,-17.4a8.7,8.7 0 0 1 0,17.4z" fill="#fff" id="path10"/>
  </g>
 </g>
</svg>